<?xml version="1.0" encoding="utf-8"?>
<!-- Generator: Adobe Illustrator 26.0.1, SVG Export Plug-In . SVG Version: 6.00 Build 0)  -->
<svg version="1.1" id="Layer_1" xmlns="http://www.w3.org/2000/svg" xmlns:xlink="http://www.w3.org/1999/xlink" x="0px" y="0px"
	 viewBox="0 0 109.83 137.96" style="enable-background:new 0 0 109.83 137.96;" xml:space="preserve">
<style type="text/css">
	.st0{fill:#FFFFFF;}
	.st1{opacity:0.7;fill:#FFFFFF;}
</style>
<g>
	<path class="st0" d="M84.2,88.05v13.92c0,5.81-4.72,10.53-10.54,10.53H25.62v-11.59v-8.57c0-5.82,4.72-10.54,10.54-10.54h41.81
		V56.18H30.13c-1.82,0-3.59,0.17-5.32,0.48c-0.2,0.03-0.41,0.06-0.61,0.1c-0.26,0.05-0.51,0.12-0.77,0.17
		c-0.21,0.05-0.41,0.1-0.62,0.15c-0.25,0.06-0.5,0.13-0.75,0.2c-0.2,0.06-0.41,0.11-0.62,0.17c-0.24,0.08-0.48,0.16-0.73,0.24
		c-0.2,0.06-0.4,0.13-0.61,0.2c-0.24,0.09-0.47,0.17-0.71,0.26c-0.2,0.08-0.4,0.16-0.6,0.24c-0.23,0.1-0.46,0.19-0.69,0.29
		c-0.2,0.09-0.4,0.18-0.59,0.27c-0.23,0.1-0.45,0.21-0.68,0.32c-0.19,0.09-0.38,0.19-0.57,0.29c-0.22,0.12-0.44,0.23-0.66,0.35
		c-0.19,0.1-0.38,0.22-0.57,0.32c-0.21,0.13-0.42,0.25-0.63,0.37c-0.19,0.12-0.38,0.25-0.56,0.37c-0.35,0.22-0.7,0.45-1.04,0.69
		c-0.21,0.15-0.43,0.3-0.64,0.46c-0.18,0.13-0.36,0.28-0.53,0.42c-0.19,0.14-0.38,0.28-0.56,0.43c-0.17,0.15-0.35,0.29-0.52,0.44
		c-0.18,0.16-0.35,0.31-0.53,0.46c-0.17,0.15-0.33,0.31-0.5,0.46c-0.17,0.17-0.34,0.33-0.51,0.49c-0.16,0.16-0.32,0.32-0.47,0.48
		c-0.17,0.17-0.33,0.34-0.49,0.52c-0.16,0.16-0.31,0.32-0.45,0.49c-0.16,0.18-0.32,0.36-0.48,0.55c-0.14,0.16-0.28,0.33-0.42,0.5
		c-0.15,0.19-0.3,0.39-0.45,0.58c-0.13,0.17-0.27,0.34-0.39,0.52c-0.15,0.2-0.3,0.41-0.45,0.62c-0.11,0.17-0.23,0.34-0.35,0.51
		c-0.15,0.23-0.3,0.46-0.44,0.69c-0.1,0.16-0.21,0.32-0.3,0.48c-0.19,0.31-0.37,0.62-0.54,0.94c-0.05,0.09-0.11,0.17-0.15,0.26
		C3.41,72.36,3.2,72.78,3,73.19c-0.08,0.15-0.14,0.3-0.21,0.45c-0.13,0.27-0.25,0.55-0.37,0.83c-0.08,0.17-0.15,0.35-0.22,0.52
		c-0.1,0.26-0.21,0.52-0.31,0.78c-0.07,0.19-0.13,0.38-0.2,0.57c-0.09,0.26-0.18,0.51-0.26,0.77c-0.06,0.2-0.12,0.39-0.18,0.59
		c-0.08,0.26-0.15,0.52-0.22,0.78c-0.05,0.2-0.11,0.4-0.16,0.6c-0.06,0.27-0.12,0.53-0.18,0.8c-0.04,0.2-0.09,0.4-0.13,0.61
		c-0.05,0.27-0.1,0.55-0.14,0.82c-0.04,0.2-0.07,0.4-0.1,0.6c-0.04,0.29-0.08,0.58-0.11,0.88c-0.02,0.19-0.05,0.38-0.07,0.57
		c-0.03,0.32-0.05,0.65-0.07,0.98c-0.01,0.16-0.03,0.32-0.04,0.48C0.01,85.32,0,85.81,0,86.31v2.3v12.3v37.05
		c8.72,0,13.49,0.16,30.13,0.16h49.56c16.64,0,30.13-13.48,30.13-30.12V88.05H84.2z"/>
	<path class="st0" d="M25.62,50.21V36.16c0-5.82,4.72-10.54,10.54-10.54h37.5c5.82,0,10.54,4.72,10.54,10.54v13.76h25.62V30.13
		C109.82,13.49,96.33,0,79.69,0H30.13C13.49,0,0,13.49,0,30.13v35.8C5.75,57.46,14.98,51.53,25.62,50.21"/>
	<rect x="84.21" y="56.18" class="st1" width="25.62" height="25.62"/>
</g>
</svg>
